<svg xmlns="http://www.w3.org/2000/svg" width="186.27" height="29.58" viewBox="0 0 49.28 7.83"><defs><path id="a" d="M118.75 309.2h310.32v133.31H118.75z"/></defs><g aria-label="Tmi Kehystyspalvelu T Olsbo" style="font-size:16px;white-space:pre;shape-inside:url(#a);fill:#f1f4f3;stroke:#f1f4f3;stroke-width:.623622" transform="matrix(.264583 0 0 .264583 -31.5 -82.5)"><path d="M121.76 314.04q-1 0-1.5.52-.5.5-.73 1.74 0 .03-.1.03-.07 0-.07-.03l.14-1.5q.08-.93.08-1.4 0-.08.08-.08.1 0 .1.08 0 .36.86.36 1.38.04 3.22.04.94 0 2-.03l1.09-.01q.57 0 .84-.08.3-.08.37-.32.02-.07.1-.07t.08.07q-.05.46-.1 1.4-.05.95-.05 1.54 0 .03-.1.03-.09 0-.09-.03-.05-1.25-.51-1.74-.46-.52-1.54-.52-.72 0-1.02.07-.3.06-.42.27-.1.2-.1.7v7.38q0 .5.1.72.12.22.44.3.32.08 1 .08.05 0 .05.1t-.05.1q-.52 0-.84-.02l-1.25-.02-1.2.02q-.32.02-.88.02-.03 0-.03-.1t.03-.1q.69 0 1-.08.33-.08.44-.3.13-.24.13-.72v-7.4q0-.5-.12-.7-.1-.2-.41-.25-.3-.07-1.04-.07zM136.54 323.76q-.05 0-.05-.1t.05-.1q.43 0 .64-.08.21-.1.29-.32.08-.24.08-.7v-2.54q0-.95-.34-1.41-.33-.47-1.04-.47-.56 0-1.15.39-.57.37-.99 1l-.06-.19q.67-.94 1.32-1.37.68-.45 1.41-.45.85 0 1.3.48.45.48.45 1.46v3.1q0 .48.08.7.08.23.28.32.21.08.64.08.05 0 .05.1t-.05.1q-.36 0-.59-.02l-.86-.02-.87.02q-.22.02-.59.02zm-4.13 0q-.04 0-.04-.1t.04-.1q.44 0 .64-.08.21-.1.28-.32.08-.22.08-.7v-2.54q0-.95-.34-1.41-.34-.47-1.02-.47-.58 0-1.16.39-.57.37-.99 1l-.06-.19q.67-.94 1.33-1.37.67-.45 1.39-.45.85 0 1.3.48.46.48.46 1.42v3.14q0 .48.08.7.08.23.29.32.2.08.64.08.04 0 .04.1t-.04.1q-.37 0-.6-.02l-.86-.02-.88.02q-.2.02-.58.02zm-4.1 0q-.06 0-.06-.1t.05-.1q.43 0 .64-.08.21-.1.27-.32.08-.22.08-.7v-3.17q0-.54-.12-.78-.13-.24-.44-.24-.25 0-.86.24h-.03q-.07 0-.1-.07-.01-.08.05-.1l1.86-.89.1-.01q.14 0 .3.36.16.37.16.95v3.7q0 .49.06.71.08.23.29.32.2.08.64.08.05 0 .05.1t-.05.1q-.37 0-.58-.02l-.86-.02-.88.02q-.21.02-.58.02zM140.64 323.76q-.03 0-.03-.1t.03-.1q.43 0 .64-.08.22-.1.3-.32.08-.22.08-.7v-3q0-.57-.13-.82-.1-.26-.4-.26-.28 0-.72.22h-.01q-.07 0-.1-.08t.02-.1l2.08-.97.06-.01q.03 0 .08.04t.05.08l-.02.64-.01 1.25v3q0 .49.08.71.08.23.29.32.2.08.64.08.04 0 .04.1t-.04.1q-.37 0-.6-.02l-.86-.02-.86.02q-.23.02-.61.02zm1.34-8.2q-.32 0-.51-.17-.2-.18-.2-.5t.2-.5q.2-.17.51-.17.32 0 .5.18.17.17.17.5 0 .31-.17.49-.18.17-.5.17zM149.84 315.05q0-.48-.1-.7-.1-.23-.38-.3-.27-.1-.88-.1-.03 0-.03-.1t.03-.1l.8.02q.67.03 1.07.03.46 0 1.14-.03l.75-.01q.05 0 .05.1 0 .09-.05.09-.6 0-.88.1-.27.09-.39.33-.1.22-.1.7v7.38q0 .5.1.72.1.22.37.3.29.08.9.08.05 0 .05.1t-.05.1q-.48 0-.77-.02l-1.12-.02-1.09.02q-.29.02-.8.02-.03 0-.03-.1t.03-.1q.61 0 .88-.08.29-.08.39-.3.1-.24.1-.72zm1.47 3.19.8-.64 2.34 2.97q1.16 1.52 1.77 2.15.63.62.96.73.34.11.98.11.05 0 .05.1t-.05.1H155.9q-.32.01-.91-.8-.6-.84-1.14-1.52zm3-3.19q.52-.53.52-.78 0-.32-.94-.32-.04 0-.04-.1t.04-.1l.68.02q.64.03 1.17.03.53 0 1.1-.03l.6-.01q.05 0 .05.1 0 .09-.05.09-.66 0-1.4.29-.73.28-1.37.9l-4.1 4.02h-.4zM161.37 323.95q-.92 0-1.58-.43-.66-.44-1-1.14-.34-.7-.34-1.5 0-.95.44-1.73.45-.8 1.22-1.25.78-.46 1.71-.46.9 0 1.38.48.48.48.48 1.34 0 .22-.05.32-.03.1-.14.1h-.9l.02-.3q0-.8-.36-1.2-.35-.42-.96-.42-.84 0-1.32.67-.47.67-.47 1.84 0 1.39.66 2.25.65.87 1.84.87.48 0 .81-.13.36-.13.79-.4h.01q.05 0 .08.06.05.05.02.1-1.09.93-2.34.93zm-2.17-4.47 3.63-.06v.26l-3.62.01zM164.81 323.76q-.04 0-.04-.1t.04-.1q.44 0 .64-.08.21-.1.3-.32.07-.24.07-.7v-8.27q0-.58-.11-.83-.11-.26-.4-.26-.24 0-.74.22l-.03.02q-.05 0-.08-.08t.03-.11l2.04-1h.04q.07 0 .1.05.05.04.05.08v10.18q0 .48.08.7.08.23.29.32.2.08.64.08.04 0 .04.1t-.04.1q-.37 0-.6-.02l-.86-.02-.86.02q-.23.02-.6.02zm4.3 0q-.04 0-.04-.1t.05-.1q.43 0 .64-.08.2-.1.29-.32.08-.24.08-.7v-2.54q0-.95-.37-1.41-.35-.47-1.1-.47-.6 0-1.2.39-.61.37-1.05 1l-.06-.19q.72-.94 1.4-1.37.68-.45 1.43-.45.88 0 1.36.5.48.5.48 1.44v3.1q0 .48.08.7.08.23.29.32.2.08.64.08.05 0 .05.1t-.05.1q-.37 0-.6-.02l-.86-.02-.86.02q-.22.02-.6.02zM174.65 321.39q0 .94.32 1.39.34.45 1.01.45.63 0 1.25-.35.64-.37 1.09-1l.08.18q-.74.94-1.46 1.4-.72.42-1.49.42-.81 0-1.26-.5-.43-.5-.43-1.46v-2.45q0-.63-.11-.9-.12-.29-.37-.29-.23 0-.55.16h-.01q-.07 0-.1-.08t.03-.1l1.78-.8.05-.02q.05 0 .11.04t.06.08zm4.26 3.49q0 1.52-.83 2.44-.83.93-2.37.93-.88 0-1.49-.35-.6-.35-.6-.88 0-.24.14-.37t.37-.13q.2 0 .35.12.14.12.33.4.3.41.63.64.33.24.96.24.73 0 1.17-.58.44-.58.44-2.08v-5.8q0-.62-.1-.89-.12-.29-.38-.29-.2 0-.52.16h-.02q-.06 0-.11-.08-.03-.08.03-.1l1.78-.8.06-.02q.05 0 .1.04.06.04.06.08zM181.74 318.56q0 .56.37.9.37.31 1.09.68.56.29.86.5.32.2.55.54.22.34.22.82 0 .81-.6 1.37-.62.56-1.66.56-.84 0-1.53-.48-.1-.06-.1-.2l-.03-1.24q0-.05.08-.05.1-.01.11.04.3.81.79 1.23.5.4 1.13.4.5 0 .77-.23.29-.24.29-.7 0-.45-.21-.75-.2-.32-.48-.5-.29-.2-.78-.45-.53-.25-.85-.46-.3-.2-.53-.54-.2-.34-.2-.84 0-.86.63-1.3.66-.47 1.54-.47.64 0 1.17.24.1.03.1.08.04.03.04.1 0 .31-.02.49l-.01.67q0 .03-.1.03t-.1-.03q0-.51-.54-.9-.53-.38-1.12-.38-.41 0-.65.23-.23.2-.23.64zM188.56 323.95q-.67 0-1.1-.3-.44-.31-.44-1.01v-3.76q0-.42-.06-.6-.05-.17-.21-.22-.16-.06-.54-.06-.07 0-.07-.1 0-.11.07-.11.64-.02 1.04-.34.4-.33.46-.88 0-.05.13-.05.11 0 .11.05v5.52q0 1.3 1.26 1.3.74 0 1.28-.45l.04-.02q.06 0 .1.08.02.07-.02.1-.6.46-1.08.66-.46.19-.97.19zm1.55-5.59q-1.02-.25-2.43-.25v-.35q1 0 2.5-.16.03 0 .06.12.05.12.05.26 0 .13-.07.27-.05.13-.11.11zM193.23 321.39q0 .94.32 1.39.34.45 1 .45.63 0 1.26-.35.64-.37 1.08-1l.08.18q-.73.94-1.45 1.4-.72.42-1.49.42-.82 0-1.26-.5-.44-.5-.44-1.46v-2.45q0-.63-.1-.9-.12-.29-.38-.29-.22 0-.54.16h-.02q-.06 0-.1-.08-.02-.08.04-.1l1.78-.8.04-.02q.05 0 .12.04.06.04.06.08zm4.26 3.49q0 1.52-.84 2.44-.83.93-2.36.93-.88 0-1.5-.35-.6-.35-.6-.88 0-.24.14-.37.15-.13.37-.13.21 0 .35.12.15.12.34.4.3.41.62.64.34.24.96.24.74 0 1.17-.58.45-.58.45-2.08v-5.8q0-.62-.11-.89-.11-.29-.37-.29-.2 0-.53.16h-.01q-.07 0-.12-.08-.03-.08.04-.1l1.77-.8.07-.02q.04 0 .1.04.06.04.06.08zM200.32 318.56q0 .56.37.9.36.31 1.08.68.56.29.87.5.32.2.54.54.23.34.23.82 0 .81-.61 1.37t-1.65.56q-.85 0-1.54-.48-.1-.06-.1-.2l-.02-1.24q0-.05.08-.05.1-.01.1.04.31.81.8 1.23.49.4 1.13.4.5 0 .77-.23.28-.24.28-.7 0-.45-.2-.75-.2-.32-.48-.5-.3-.2-.79-.45-.53-.25-.85-.46-.3-.2-.52-.54-.21-.34-.21-.84 0-.86.64-1.3.65-.47 1.53-.47.64 0 1.17.24.1.03.11.08.04.03.04.1 0 .31-.02.49l-.02.67q0 .03-.1.03-.09 0-.09-.03 0-.51-.54-.9-.53-.38-1.12-.38-.42 0-.66.23-.22.2-.22.64zM204.64 328.16q-.05 0-.05-.1t.05-.1q.43 0 .64-.1.2-.07.29-.3.08-.22.08-.7v-7.52q0-.58-.13-.82-.13-.25-.45-.25-.35 0-.85.22l-.03.02q-.06 0-.08-.08-.03-.08.02-.11l1.77-.85q.03-.02.11-.02.23 0 .37.39.16.36.16 1.04v7.98q0 .48.11.7.13.23.45.3.34.1 1.04.1.03 0 .03.1t-.03.1q-.54 0-.86-.02l-1.17-.02-.88.02q-.22.02-.6.02zm3.6-4.2q-.63 0-1.09-.16-.46-.14-1.02-.52l.22-.88q.5.6 1.02.92.55.3 1.35.3.85 0 1.39-.73.54-.75.54-2.08 0-1.34-.59-2.08-.59-.75-1.5-.75-.64 0-1.17.34-.51.33-1.12.99l-.13-.13q.82-.93 1.57-1.36.75-.45 1.52-.45.66 0 1.22.35.56.36.9 1.03.33.67.33 1.57 0 1.2-.55 2.03-.54.81-1.34 1.21-.78.4-1.55.4zM215.18 323.92q-.97 0-1.65-.72-.65-.72-.65-2.02 0-1.15.54-2.02.55-.86 1.36-1.32.83-.47 1.67-.47.56 0 1.07.2.51.22.83.59l-.64.9q0-.6-.51-.98-.51-.39-1.15-.39-.95 0-1.54.85-.58.83-.58 2.18 0 1.2.48 1.93.5.74 1.32.74.6 0 1.13-.37.55-.38 1.1-.98l.13.12q-.7.8-1.39 1.28-.67.48-1.52.48zm2.96-.02q-.14 0-.29-.42-.14-.41-.14-1v-4.5q.32-.13.46-.22.15-.1.28-.32.01-.04.08 0 .06.01.06.04v4.56q0 .55.13.79.13.22.43.22.27 0 .85-.22h.03q.06 0 .08.08.03.06-.03.08l-1.86.9h-.08zM220.78 323.76q-.05 0-.05-.1t.05-.1q.43 0 .64-.08.21-.1.29-.32.08-.24.08-.7v-8.27q0-.58-.11-.83-.11-.26-.4-.26-.24 0-.74.22h-.03q-.05 0-.08-.08-.02-.08.03-.1l2.05-.97.08-.01q.05 0 .1.04.04.04.04.08v10.18q0 .46.07.69.08.22.29.32.2.1.64.1.04 0 .04.09 0 .1-.04.1-.36 0-.58-.02l-.9-.02-.86.02q-.22.02-.6.02zM231.17 317.58q.03 0 .03.1t-.03.1q-.42 0-.7.25-.28.25-.54.9l-2 4.8q-.03.09-.17.09-.15 0-.18-.08l-2.24-4.83q-.32-.7-.54-.91-.21-.23-.53-.23-.05 0-.05-.1t.05-.1q.32 0 .5.03l.6.01 1.04-.01q.24-.02.64-.02.05 0 .05.1t-.05.1q-.96 0-.96.38 0 .1.07.24l2.05 4.35-.47.65 1.87-4.54q.12-.3.12-.46 0-.32-.3-.47-.31-.16-.97-.16-.03 0-.03-.1t.03-.1q.43 0 .66.03l.96.01.56-.01q.16-.02.53-.02zM234.72 323.95q-.93 0-1.59-.43-.65-.44-1-1.14-.34-.7-.34-1.5 0-.95.45-1.73.45-.8 1.21-1.25.79-.46 1.72-.46.9 0 1.37.48.48.48.48 1.34 0 .22-.05.32-.03.1-.14.1h-.9l.02-.3q0-.8-.35-1.2-.35-.42-.96-.42-.85 0-1.33.67-.46.67-.46 1.84 0 1.39.65 2.25.66.87 1.84.87.48 0 .82-.13.35-.13.78-.4h.02q.05 0 .08.06.05.05.01.1-1.08.93-2.33.93zm-2.18-4.47 3.63-.06v.26l-3.61.01zM238.38 323.76q-.05 0-.05-.1t.05-.1q.43 0 .64-.08.21-.1.29-.32.08-.24.08-.7v-8.27q0-.58-.11-.83-.11-.26-.4-.26-.24 0-.74.22h-.03q-.05 0-.08-.08-.02-.08.03-.1l2.05-.97.08-.01q.05 0 .1.04.04.04.04.08v10.18q0 .46.07.69.08.22.29.32.2.1.64.1.04 0 .04.09 0 .1-.04.1-.36 0-.58-.02l-.9-.02-.86.02q-.22.02-.6.02zM244.78 323.88q-.8 0-1.25-.5-.44-.5-.44-1.46v-2.45q0-.63-.12-.9-.1-.29-.36-.29-.23 0-.55.16h-.01q-.07 0-.1-.08-.03-.1.03-.1l1.78-.8.06-.02q.05 0 .1.04.06.04.06.08v3.83q0 1.85 1.35 1.85.6 0 1.23-.36.62-.37 1.07-1l.08.18q-.72.94-1.44 1.4-.72.42-1.49.42zm3.44-1.84q0 .55.13.79t.43.24q.27 0 .85-.23h.03q.07 0 .08.08.03.07-.03.1l-1.87.88-.07.02q-.16 0-.3-.37-.14-.37-.14-.96v-3.12q0-.64-.12-.91-.1-.28-.36-.28-.23 0-.55.16h-.01q-.07 0-.1-.08-.02-.1.05-.1l1.77-.8.05-.02q.05 0 .1.04.06.04.06.08zM256.51 314.04q-1 0-1.5.52-.5.5-.72 1.74 0 .03-.1.03-.08 0-.08-.03l.14-1.5q.08-.93.08-1.4 0-.08.08-.08.1 0 .1.08 0 .36.86.36 1.38.04 3.22.04.94 0 2-.03l1.09-.01q.57 0 .85-.08t.36-.32q.02-.07.1-.07t.08.07q-.05.46-.1 1.4-.04.95-.04 1.54 0 .03-.1.03t-.1-.03q-.04-1.25-.5-1.74-.47-.52-1.54-.52-.72 0-1.03.07-.3.06-.41.27-.12.2-.12.7v7.38q0 .5.12.72.1.22.43.3.32.08 1 .08.05 0 .05.1t-.04.1q-.53 0-.85-.02l-1.25-.02-1.2.02q-.32.02-.88.02-.03 0-.03-.1t.03-.1q.69 0 1-.08.33-.08.44-.3.13-.24.13-.72v-7.4q0-.5-.11-.7-.12-.2-.42-.25-.3-.07-1.04-.07zM273.25 323.95q-1.5 0-2.66-.7-1.15-.7-1.8-1.88-.62-1.2-.62-2.6 0-1.65.84-2.82.83-1.19 2.12-1.78 1.32-.6 2.68-.6 1.52 0 2.67.73 1.15.7 1.76 1.87.62 1.17.62 2.48 0 1.46-.77 2.67-.76 1.22-2.06 1.92-1.28.7-2.78.7zm.56-.34q1.08 0 1.95-.53.88-.52 1.37-1.53.52-1.03.52-2.45 0-1.5-.56-2.67t-1.59-1.83q-1-.65-2.37-.65-1.76 0-2.75 1.13-.99 1.14-.99 3.12 0 1.5.56 2.76.56 1.23 1.57 1.95 1 .7 2.29.7zM280.29 323.76q-.05 0-.05-.1t.05-.1q.43 0 .64-.08.2-.1.28-.32.08-.24.08-.7v-8.27q0-.58-.1-.83-.12-.26-.4-.26-.25 0-.74.22H280q-.04 0-.08-.08-.01-.08.04-.1l2.04-.97.08-.01q.05 0 .1.04t.05.08v10.18q0 .46.06.69.08.22.29.32.2.1.64.1.05 0 .05.09 0 .1-.05.1-.35 0-.58-.02l-.9-.02-.86.02q-.22.02-.6.02zM285.37 318.56q0 .56.37.9.37.31 1.09.68.56.29.86.5.32.2.55.54.22.34.22.82 0 .81-.6 1.37-.61.56-1.65.56-.85 0-1.54-.48-.1-.06-.1-.2l-.03-1.24q0-.05.08-.05.1-.01.11.04.3.81.79 1.23.5.4 1.13.4.5 0 .77-.23.29-.24.29-.7 0-.45-.2-.75-.2-.32-.49-.5-.29-.2-.78-.45-.53-.25-.85-.46-.3-.2-.53-.54-.2-.34-.2-.84 0-.86.63-1.3.66-.47 1.54-.47.64 0 1.17.24.1.03.11.08.03.03.03.1l-.01.49-.02.67q0 .03-.1.03t-.1-.03q0-.51-.54-.9-.52-.38-1.12-.38-.41 0-.65.23-.23.2-.23.64zM293.23 323.96q-1.36 0-2.4-.88l.75-1.42q0 .69.34 1.14.35.44.85.65.5.2.96.2.92 0 1.44-.71.52-.72.52-2.06 0-1.44-.56-2.21t-1.48-.77q-.61 0-1.16.35-.52.35-1.1.98l-.13-.11q.69-.79 1.35-1.27.67-.48 1.56-.48.7 0 1.28.34.6.33.95 1 .35.66.35 1.62 0 1.15-.51 1.99-.5.81-1.31 1.23-.8.41-1.7.41zm-3.42-.12q-.07 0-.08-.07-.02-.06.03-.1.51-.35.72-.65.2-.32.2-.91v-7.9q0-.58-.12-.84-.11-.25-.4-.25-.23 0-.72.2h-.03q-.05 0-.08-.08-.02-.08.03-.1l2-.97.08-.01q.05 0 .1.04.04.04.04.08v10.74l-1.74.82zM301.04 323.96q-.93 0-1.65-.44-.7-.47-1.09-1.24-.38-.78-.38-1.7 0-1.03.5-1.75.5-.74 1.29-1.1.8-.36 1.62-.36.94 0 1.64.47.7.46 1.08 1.23.38.75.38 1.6 0 .99-.46 1.74-.47.74-1.25 1.15-.77.4-1.68.4zm.46-.3q.88 0 1.36-.62.48-.63.48-1.92 0-1-.33-1.78-.32-.78-.9-1.22-.58-.44-1.31-.44-.87 0-1.35.62-.46.62-.46 1.8 0 .97.32 1.78.32.82.9 1.3.57.48 1.3.48z" style="font-family:&quot;Cormorant Infant&quot;;-inkscape-font-specification:&quot;Cormorant Infant&quot;"/></g><path d="M31.82 77.5H50.2M62.08 77.5h18.38" style="fill:red;stroke:#eec888;stroke-width:.642375;stroke-linecap:round;stroke-linejoin:round;stroke-dasharray:none;stroke-opacity:1" transform="translate(-31.5 -72.5)"/><path d="M53.6 77.88v1M56.08 77.88V80M58.55 77.88v1" style="fill:none;stroke:#5b5863;stroke-width:.665001;stroke-linecap:round;stroke-linejoin:round;stroke-dasharray:none;stroke-opacity:1" transform="translate(-31.5 -72.5)"/></svg>